<svg width="1855" height="453" viewBox="0 0 1855 453" fill="none" xmlns="http://www.w3.org/2000/svg">
<g clip-path="url(#clip0_461_102)">
<g filter="url(#filter0_d_461_102)">
<path d="M1600.39 368.203C1604.31 365.393 1609.63 365.823 1613.15 369.115C1624.46 379.699 1639.59 386.105 1656.17 386.105C1659.13 386.105 1661.56 385.877 1663.11 385.699L1663.51 385.649C1697.86 381.724 1722.79 350.403 1718.91 316.044V315.791C1717.8 306.245 1717.09 296.345 1716.74 286.167C1738.98 288.217 1762.7 289.99 1788.23 291.484C1789.45 291.56 1790.66 291.585 1791.88 291.585C1825.19 291.585 1852.82 265.581 1854.85 232.311C1855.91 215.498 1850.34 199.294 1839.18 186.659C1827.94 173.948 1812.46 166.403 1795.55 165.415C1718.15 160.883 1654.88 153.338 1607.5 143.007C1603.05 142.02 1598.49 141.539 1593.94 141.539C1575.51 141.539 1558.48 149.717 1546.76 162.883C1539.24 161.466 1531.63 160.706 1523.96 160.706C1517.81 160.706 1511.61 161.187 1505.53 162.149C1491.99 164.276 1478.73 168.732 1466.43 175.113C1456.21 154.325 1434.95 139.893 1410.27 139.716H1409.76C1398.25 139.716 1387.42 142.855 1378.08 148.299C1370.46 144.451 1361.98 142.096 1353 141.589C1361.02 134.778 1372.2 127.663 1387.8 120.599C1419.51 106.243 1433.63 68.7691 1419.23 36.8912C1409 14.4577 1386.45 -0.0506592 1361.78 -0.0506592C1352.69 -0.0506592 1343.91 1.84834 1335.76 5.57038C1225.87 55.3748 1208.66 131.563 1208.2 172.53C1208.15 176.176 1208.3 179.696 1208.56 183.114C1194.36 168.986 1176.06 161.339 1155.69 161.339C1142.25 161.339 1129.67 164.656 1118.53 170.91C1109.8 167.213 1100.31 165.289 1090.34 165.289C1070.04 165.289 1051.16 173.619 1036.96 188.786C1015.04 170.201 992.696 165.162 974.929 165.162C972.17 165.162 969.361 165.289 966.602 165.542C961.844 165.973 954.125 167.137 945.241 170.201C935.801 164.58 924.792 161.364 913.099 161.364C911.884 161.364 910.644 161.39 909.429 161.466H909.125C895.56 162.352 883.462 163.719 872.478 165.618C870.301 165.39 868.125 165.289 865.923 165.289C858.432 165.289 851.117 166.631 844.309 169.138C830.921 152.553 811.23 141.311 788.047 137.918C782.96 137.184 777.67 136.804 772.305 136.804C739.909 136.804 706.096 149.97 681.85 170.404C670.689 162.959 657.959 155.921 643.608 149.287C594.104 126.397 523.391 106.217 427.393 87.5565C358.882 74.2382 281.462 62.9708 215.051 56.6408C180.403 53.3239 154.41 51.7034 135.53 51.7034C114.776 51.7034 66.1576 51.7034 50.5419 98.0643L50.2635 98.9252C48.4159 104.572 47.4289 110.471 47.277 116.421V117.181C46.2141 178.506 48.6437 237.831 54.3382 291.914C35.2299 294.547 18.2476 305.815 7.87087 323.741C2.32819 333.262 -0.126783 344.251 -0.000237843 355.24C0.430016 389.548 28.8267 417.603 63.0952 417.603H63.9557H64.968C91.8462 417.172 233.096 414.387 373.257 403.069C464.901 395.701 538.551 386.13 592.155 374.635C609.163 370.989 635.231 365.393 660.768 355.214C672.309 371.723 691.341 382.155 712.398 382.155C717.561 382.155 722.699 381.522 727.71 380.256C740.846 376.989 752.311 369.773 760.84 359.544C770.685 365.595 780.961 372.204 790.958 379.04L791.185 379.192C801.663 386.256 813.888 390.004 826.517 390.004C832.237 390.004 837.83 389.194 843.221 387.725C848.207 389.649 853.446 391.219 858.912 392.333C865.898 393.751 873.111 394.46 880.324 394.46C896.851 394.46 913.428 390.738 928.436 383.952C933.65 385.32 939.091 386.079 944.71 386.079C948.228 386.079 951.771 385.775 955.238 385.193L955.618 385.117C970.171 382.534 982.699 375.141 991.81 364.861C1001.05 375.318 1013.63 382.509 1027.75 385.066C1039.32 397.828 1055.99 405.753 1074.49 405.753C1076.19 405.753 1078.49 405.702 1081.35 405.398C1097.88 403.601 1112.79 395.524 1123.34 382.661C1130.5 373.951 1135.08 363.696 1136.83 352.91C1140.02 352.176 1143.11 351.214 1146.12 350.024C1152.62 359.974 1160.57 369.647 1170.42 378.407C1182.01 388.763 1196.91 394.46 1212.45 394.46C1217.72 394.46 1222.91 393.777 1227.92 392.511C1228.07 396.157 1228.53 399.803 1229.34 403.423C1232.95 419.907 1242.8 434.01 1256.87 442.999C1267.05 449.531 1278.84 453 1290.94 453C1312.73 453 1332.62 442.036 1344.24 423.679C1358.84 400.74 1369.24 377.698 1375.52 354.708L1377.32 353.974C1386.71 359.443 1397.39 362.38 1408.55 362.481H1409C1418.67 362.481 1427.83 360.278 1436.03 356.354C1445.47 365.722 1455.83 373.191 1465.67 378.509C1483.59 388.257 1504.14 393.397 1525.1 393.397C1548.03 393.397 1570.22 387.345 1589.41 376.053C1589.71 375.875 1590.01 375.673 1590.29 375.47L1600.34 368.254L1600.39 368.203Z" fill="black"/>
</g>
<g filter="url(#filter1_d_461_102)">
<path d="M417.245 139.766C350.378 126.777 274.831 115.763 209.938 109.585C106.095 99.6088 103.413 107.483 100.882 115.054L100.401 116.523L100.35 118.067C98.9583 200.104 103.944 277.76 114.726 343.263C83.0136 344.175 63.5257 344.428 62.9689 344.453C57.4768 344.504 53.0983 349.036 53.1236 354.531C53.1996 360 57.654 364.38 63.0954 364.38H63.2473C64.7658 364.329 217.531 362.228 369.006 349.998C458.144 342.833 529.515 333.616 581.045 322.577C651.809 307.435 685.444 288.977 686.887 264.442C689.722 216.992 598.989 175.062 417.219 139.741L417.245 139.766ZM576.919 303.106C526.276 313.943 455.79 323.032 367.512 330.173C280.753 337.161 193.563 340.807 134.846 342.681C124.242 279.609 119.18 204.788 120.218 125.334C143.325 123.03 237.044 129.309 355.491 148.932C499.676 172.809 606.227 204.358 647.936 235.476C661.097 245.325 667.551 254.694 667.019 263.303C666.741 268.164 659.376 285.458 576.919 303.08V303.106Z" fill="white"/>
</g>
<g filter="url(#filter2_d_461_102)">
<path d="M832.186 318.652C821.151 311.107 776.709 281.381 742.567 266.468C776.278 255.859 815.204 240.363 808.724 214.232C805.46 201.167 795.387 192.736 780.353 190.558C753.854 186.684 716.676 203.32 703.92 224.842L703.085 226.589C694.328 251.225 698.58 304.524 702.806 321.387C704.173 326.729 709.538 329.995 714.879 328.654C720.219 327.337 723.484 321.918 722.142 316.576C720.396 309.486 718.624 294.446 718.068 278.596C740.339 283.888 791.362 314.905 820.949 335.135C822.67 336.3 824.644 336.857 826.567 336.857C829.756 336.857 832.869 335.338 834.818 332.502C837.931 327.97 836.742 321.766 832.186 318.677V318.652ZM718.422 252.947C718.928 245.655 719.94 239.122 721.535 234.21C730.849 219.778 759.144 207.573 777.493 210.283C787.566 211.751 788.882 217.068 789.414 219.043C789.895 221.069 786.377 226.968 769.495 234.995C754.184 242.287 734.316 248.187 721.206 252.086C720.244 252.415 719.333 252.643 718.447 252.921L718.422 252.947Z" fill="white"/>
</g>
<g filter="url(#filter3_d_461_102)">
<path d="M920.818 326.577C909.783 335.996 894.75 341.288 880.374 341.288C876.679 341.288 873.035 340.934 869.491 340.199C858.052 337.845 849.447 331.92 845.22 323.463C841.829 316.728 841.879 303.967 843.474 289.534C838.64 290.091 833.983 287.053 832.717 282.191C831.275 276.899 834.439 271.43 839.779 269.987C842.082 269.354 844.41 268.797 846.713 268.24C847.954 261.707 849.27 255.251 850.611 249.225C845.979 251.503 840.336 249.832 837.653 245.275C834.869 240.54 836.463 234.438 841.247 231.653C845.979 228.867 851.168 226.462 856.837 224.36C858.836 220.005 863.696 217.549 868.479 218.815C869.567 219.094 870.504 219.524 871.39 220.081C882.829 217.423 896.218 215.625 912.517 214.587C918.009 214.258 922.767 218.385 923.121 223.879C923.476 229.348 919.325 234.083 913.833 234.438C897.205 235.552 884.07 237.35 873.263 240.135C871.314 248.111 869.517 256.289 867.922 264.163C876.325 262.897 884.728 262.138 893.105 261.783C898.445 261.505 903.228 265.86 903.456 271.354C903.659 276.849 899.381 281.482 893.889 281.71C884.044 282.115 874.174 283.179 864.253 284.951C862.051 299.51 861.342 310.828 863.063 314.525C864.506 317.361 868.277 319.589 873.516 320.652C882.956 322.577 897.256 320.45 907.936 311.36C912.112 307.815 918.414 308.322 921.957 312.525C925.551 316.702 925.02 323.007 920.844 326.552L920.818 326.577Z" fill="white"/>
</g>
<g filter="url(#filter4_d_461_102)">
<path d="M1048.86 320.602C1048.65 319.817 1044.91 304.296 1037.67 285.686H1038.23L1038.02 285.28C1042.05 284.116 1045.04 280.444 1045.19 276.064C1045.39 270.569 1041.09 265.936 1035.59 265.733C1033.32 265.657 1031.06 265.581 1028.81 265.531C1012.31 232.362 993 216.587 971.386 218.537C955.973 219.929 937.32 230.108 932.967 269.455C932.132 269.531 931.322 269.658 930.537 269.734C925.07 270.418 921.173 275.406 921.856 280.849C922.489 285.863 926.715 289.534 931.651 289.585V289.635L931.777 289.585H932.005C932.132 308.322 934.764 323.868 934.916 324.628C935.827 330.046 941.015 333.667 946.431 332.755C951.847 331.793 955.466 326.653 954.53 321.235C954.53 321.083 951.873 305.46 951.898 287.559C972.626 285.736 993.303 284.977 1015.98 285.255C1024.74 305.79 1029.44 325.083 1029.5 325.286C1030.58 329.869 1034.68 332.933 1039.19 332.933C1039.95 332.933 1040.73 332.806 1041.49 332.654C1046.83 331.337 1050.15 325.995 1048.86 320.602ZM953.29 267.43C955.492 253.073 960.857 239.527 973.183 238.413C973.689 238.362 974.22 238.337 974.727 238.337C987.128 238.337 998.163 251.883 1006.01 265.278C987.71 265.278 970.475 265.987 953.29 267.43Z" fill="white"/>
</g>
<g filter="url(#filter5_d_461_102)">
<path d="M1220.4 337.389C1220.25 337.591 1220.07 337.743 1219.92 337.946C1216.25 342.048 1209.95 342.402 1205.85 338.731C1183.25 318.601 1175.05 288.749 1168.47 264.746C1165.15 252.693 1160.14 234.488 1155.69 234.488C1148.88 234.488 1143.89 258.011 1141.46 269.303C1137.84 286.521 1134.65 301.434 1121.77 301.434C1108.89 301.434 1105.27 286.8 1100.77 268.265C1098.69 259.656 1094.44 242.034 1090.31 238.641C1084.9 243.477 1078.04 277.077 1084.47 341.643C1085.02 347.112 1081.05 351.973 1075.53 352.53C1075.2 352.581 1074.9 352.581 1074.55 352.581C1069.48 352.581 1065.18 348.758 1064.67 343.618C1061.82 314.829 1057.13 245.756 1075.56 225.373C1080.7 219.702 1086.44 218.512 1090.34 218.512C1109.27 218.512 1115.04 242.464 1120.15 263.606C1120.51 265.05 1120.91 266.67 1121.32 268.341C1121.54 267.253 1121.8 266.189 1122 265.202C1126.53 243.831 1132.76 214.562 1155.71 214.562C1172.8 214.562 1179.58 231.07 1185.2 250.567C1186.03 253.478 1186.87 256.466 1187.7 259.505C1193.6 280.951 1200.94 307.663 1219.14 323.893C1223.03 327.413 1223.57 333.312 1220.4 337.414V337.389Z" fill="white"/>
</g>
<g filter="url(#filter6_d_461_102)">
<path d="M1365.93 72.2126C1296.58 103.66 1281.65 144.653 1281.3 173.467C1281.07 190.963 1289.95 204.408 1300.23 219.955C1311.67 237.248 1324.62 256.871 1328.45 286.243C1332.95 321.159 1323.18 357.847 1299.39 395.194C1297.52 398.182 1294.28 399.828 1290.99 399.828C1289.17 399.828 1287.32 399.347 1285.65 398.283C1281.02 395.321 1279.62 389.194 1282.61 384.535C1302.02 354.049 1310.98 324.45 1309.39 296.548C1309.24 293.965 1308.98 291.357 1308.68 288.825C1305.44 264.037 1294.38 247.25 1283.62 230.969C1280.43 226.133 1277.25 221.322 1274.31 216.258C1266.97 203.75 1261.2 190.102 1261.4 173.239C1261.81 138.627 1278.87 89.8353 1357.75 54.0835C1362.74 51.8047 1368.66 54.0329 1370.94 59.0209C1373.22 64.0343 1370.99 69.9338 1365.95 72.2126H1365.93Z" fill="white"/>
</g>
<g filter="url(#filter7_d_461_102)">
<path d="M1449.9 249.858C1450.03 255.352 1445.65 259.91 1440.13 260.011L1419.33 260.416L1419 299.409C1418.95 304.903 1414.5 309.284 1409.03 309.284H1408.95C1403.46 309.233 1399.03 304.751 1399.08 299.232L1399.41 260.796L1362.31 261.556L1363.9 294.877C1364.18 300.371 1359.93 305.081 1354.41 305.334C1348.95 305.612 1344.26 301.359 1344.01 295.839L1342.37 261.961L1338.39 262.037C1332.9 262.239 1328.34 257.783 1328.22 252.263C1328.14 246.769 1332.47 242.211 1337.99 242.11L1341.4 242.059L1339.61 205.143C1339.38 199.648 1343.58 194.989 1349.1 194.685C1354.51 194.458 1359.25 198.661 1359.55 204.18L1361.35 241.603L1399.56 240.844L1399.89 202.762C1399.94 197.268 1404.35 192.888 1409.81 192.888H1409.94C1415.43 192.938 1419.86 197.42 1419.81 202.94L1419.48 240.464L1439.73 240.059C1445.27 239.856 1449.8 244.313 1449.88 249.832L1449.9 249.858Z" fill="white"/>
</g>
<g filter="url(#filter8_d_461_102)">
<path d="M1595.94 265.784C1592.32 248.288 1579.59 238.033 1572.83 232.539C1554.86 217.878 1533.9 211.523 1513.86 214.688C1485.06 219.22 1454.89 243.224 1454.28 275.532C1453.73 304.068 1477.11 324.298 1490.98 331.692C1501.51 337.44 1513.3 340.174 1525.12 340.174C1542.46 340.174 1559.8 334.148 1573.06 322.551H1573.11C1578.02 318.247 1602.16 295.282 1595.94 265.784ZM1559.97 307.562C1543.83 321.665 1519.38 324.374 1500.45 314.145C1500.17 314.019 1473.74 299.586 1474.23 275.861C1474.63 254.339 1496.7 237.552 1516.95 234.362C1519.38 234.007 1521.73 233.805 1524.03 233.805C1540.21 233.805 1553.39 242.388 1560.3 248.035C1566.2 252.769 1574.3 259.327 1576.47 269.886C1580.5 288.901 1562.12 305.688 1559.97 307.562Z" fill="white"/>
</g>
<g filter="url(#filter9_d_461_102)">
<path d="M1801.83 229.045C1801.5 234.539 1796.84 238.742 1791.3 238.413C1743.84 235.628 1702.03 231.83 1665.26 226.968C1662.47 260.543 1662.75 292.395 1666.09 321.817C1666.7 327.312 1662.78 332.224 1657.29 332.857C1656.93 332.907 1656.53 332.933 1656.17 332.933C1651.19 332.933 1646.86 329.135 1646.3 324.071C1642.78 293.003 1642.51 259.454 1645.52 224.158C1626.18 221.246 1608.39 217.98 1591.91 214.384C1586.52 213.22 1583.1 207.877 1584.29 202.509C1585.46 197.167 1590.8 193.749 1596.14 194.939C1646.2 205.852 1712.26 213.802 1792.49 218.512C1797.98 218.841 1802.21 223.576 1801.85 229.045H1801.83Z" fill="white"/>
</g>
</g>
<defs>
<filter id="filter0_d_461_102" x="-0.00488281" y="-0.0506592" width="1864.98" height="463.051" filterUnits="userSpaceOnUse" color-interpolation-filters="sRGB">
<feFlood flood-opacity="0" result="BackgroundImageFix"/>
<feColorMatrix in="SourceAlpha" type="matrix" values="0 0 0 0 0 0 0 0 0 0 0 0 0 0 0 0 0 0 127 0" result="hardAlpha"/>
<feOffset dx="6" dy="6"/>
<feGaussianBlur stdDeviation="2"/>
<feColorMatrix type="matrix" values="0 0 0 0 0 0 0 0 0 0 0 0 0 0 0 0 0 0 1 0"/>
<feBlend mode="normal" in2="BackgroundImageFix" result="effect1_dropShadow_461_102"/>
<feBlend mode="normal" in="SourceGraphic" in2="effect1_dropShadow_461_102" result="shape"/>
</filter>
<filter id="filter1_d_461_102" x="53.1235" y="104.886" width="643.828" height="269.494" filterUnits="userSpaceOnUse" color-interpolation-filters="sRGB">
<feFlood flood-opacity="0" result="BackgroundImageFix"/>
<feColorMatrix in="SourceAlpha" type="matrix" values="0 0 0 0 0 0 0 0 0 0 0 0 0 0 0 0 0 0 127 0" result="hardAlpha"/>
<feOffset dx="6" dy="6"/>
<feGaussianBlur stdDeviation="2"/>
<feColorMatrix type="matrix" values="0 0 0 0 0 0 0 0 0 0 0 0 0 0 0 0 0 0 1 0"/>
<feBlend mode="normal" in2="BackgroundImageFix" result="effect1_dropShadow_461_102"/>
<feBlend mode="normal" in="SourceGraphic" in2="effect1_dropShadow_461_102" result="shape"/>
</filter>
<filter id="filter2_d_461_102" x="697.968" y="189.996" width="148.587" height="156.862" filterUnits="userSpaceOnUse" color-interpolation-filters="sRGB">
<feFlood flood-opacity="0" result="BackgroundImageFix"/>
<feColorMatrix in="SourceAlpha" type="matrix" values="0 0 0 0 0 0 0 0 0 0 0 0 0 0 0 0 0 0 127 0" result="hardAlpha"/>
<feOffset dx="6" dy="6"/>
<feGaussianBlur stdDeviation="2"/>
<feColorMatrix type="matrix" values="0 0 0 0 0 0 0 0 0 0 0 0 0 0 0 0 0 0 1 0"/>
<feBlend mode="normal" in2="BackgroundImageFix" result="effect1_dropShadow_461_102"/>
<feBlend mode="normal" in="SourceGraphic" in2="effect1_dropShadow_461_102" result="shape"/>
</filter>
<filter id="filter3_d_461_102" x="832.369" y="214.569" width="101.978" height="136.72" filterUnits="userSpaceOnUse" color-interpolation-filters="sRGB">
<feFlood flood-opacity="0" result="BackgroundImageFix"/>
<feColorMatrix in="SourceAlpha" type="matrix" values="0 0 0 0 0 0 0 0 0 0 0 0 0 0 0 0 0 0 127 0" result="hardAlpha"/>
<feOffset dx="6" dy="6"/>
<feGaussianBlur stdDeviation="2"/>
<feColorMatrix type="matrix" values="0 0 0 0 0 0 0 0 0 0 0 0 0 0 0 0 0 0 1 0"/>
<feBlend mode="normal" in2="BackgroundImageFix" result="effect1_dropShadow_461_102"/>
<feBlend mode="normal" in="SourceGraphic" in2="effect1_dropShadow_461_102" result="shape"/>
</filter>
<filter id="filter4_d_461_102" x="921.778" y="218.376" width="137.357" height="124.557" filterUnits="userSpaceOnUse" color-interpolation-filters="sRGB">
<feFlood flood-opacity="0" result="BackgroundImageFix"/>
<feColorMatrix in="SourceAlpha" type="matrix" values="0 0 0 0 0 0 0 0 0 0 0 0 0 0 0 0 0 0 127 0" result="hardAlpha"/>
<feOffset dx="6" dy="6"/>
<feGaussianBlur stdDeviation="2"/>
<feColorMatrix type="matrix" values="0 0 0 0 0 0 0 0 0 0 0 0 0 0 0 0 0 0 1 0"/>
<feBlend mode="normal" in2="BackgroundImageFix" result="effect1_dropShadow_461_102"/>
<feBlend mode="normal" in="SourceGraphic" in2="effect1_dropShadow_461_102" result="shape"/>
</filter>
<filter id="filter5_d_461_102" x="1061.95" y="214.562" width="170.505" height="148.019" filterUnits="userSpaceOnUse" color-interpolation-filters="sRGB">
<feFlood flood-opacity="0" result="BackgroundImageFix"/>
<feColorMatrix in="SourceAlpha" type="matrix" values="0 0 0 0 0 0 0 0 0 0 0 0 0 0 0 0 0 0 127 0" result="hardAlpha"/>
<feOffset dx="6" dy="6"/>
<feGaussianBlur stdDeviation="2"/>
<feColorMatrix type="matrix" values="0 0 0 0 0 0 0 0 0 0 0 0 0 0 0 0 0 0 1 0"/>
<feBlend mode="normal" in2="BackgroundImageFix" result="effect1_dropShadow_461_102"/>
<feBlend mode="normal" in="SourceGraphic" in2="effect1_dropShadow_461_102" result="shape"/>
</filter>
<filter id="filter6_d_461_102" x="1261.4" y="53.1888" width="120.436" height="356.639" filterUnits="userSpaceOnUse" color-interpolation-filters="sRGB">
<feFlood flood-opacity="0" result="BackgroundImageFix"/>
<feColorMatrix in="SourceAlpha" type="matrix" values="0 0 0 0 0 0 0 0 0 0 0 0 0 0 0 0 0 0 127 0" result="hardAlpha"/>
<feOffset dx="6" dy="6"/>
<feGaussianBlur stdDeviation="2"/>
<feColorMatrix type="matrix" values="0 0 0 0 0 0 0 0 0 0 0 0 0 0 0 0 0 0 1 0"/>
<feBlend mode="normal" in2="BackgroundImageFix" result="effect1_dropShadow_461_102"/>
<feBlend mode="normal" in="SourceGraphic" in2="effect1_dropShadow_461_102" result="shape"/>
</filter>
<filter id="filter7_d_461_102" x="1328.22" y="192.888" width="131.689" height="126.396" filterUnits="userSpaceOnUse" color-interpolation-filters="sRGB">
<feFlood flood-opacity="0" result="BackgroundImageFix"/>
<feColorMatrix in="SourceAlpha" type="matrix" values="0 0 0 0 0 0 0 0 0 0 0 0 0 0 0 0 0 0 127 0" result="hardAlpha"/>
<feOffset dx="6" dy="6"/>
<feGaussianBlur stdDeviation="2"/>
<feColorMatrix type="matrix" values="0 0 0 0 0 0 0 0 0 0 0 0 0 0 0 0 0 0 1 0"/>
<feBlend mode="normal" in2="BackgroundImageFix" result="effect1_dropShadow_461_102"/>
<feBlend mode="normal" in="SourceGraphic" in2="effect1_dropShadow_461_102" result="shape"/>
</filter>
<filter id="filter8_d_461_102" x="1454.27" y="213.893" width="152.683" height="136.281" filterUnits="userSpaceOnUse" color-interpolation-filters="sRGB">
<feFlood flood-opacity="0" result="BackgroundImageFix"/>
<feColorMatrix in="SourceAlpha" type="matrix" values="0 0 0 0 0 0 0 0 0 0 0 0 0 0 0 0 0 0 127 0" result="hardAlpha"/>
<feOffset dx="6" dy="6"/>
<feGaussianBlur stdDeviation="2"/>
<feColorMatrix type="matrix" values="0 0 0 0 0 0 0 0 0 0 0 0 0 0 0 0 0 0 1 0"/>
<feBlend mode="normal" in2="BackgroundImageFix" result="effect1_dropShadow_461_102"/>
<feBlend mode="normal" in="SourceGraphic" in2="effect1_dropShadow_461_102" result="shape"/>
</filter>
<filter id="filter9_d_461_102" x="1584.06" y="194.702" width="227.813" height="148.231" filterUnits="userSpaceOnUse" color-interpolation-filters="sRGB">
<feFlood flood-opacity="0" result="BackgroundImageFix"/>
<feColorMatrix in="SourceAlpha" type="matrix" values="0 0 0 0 0 0 0 0 0 0 0 0 0 0 0 0 0 0 127 0" result="hardAlpha"/>
<feOffset dx="6" dy="6"/>
<feGaussianBlur stdDeviation="2"/>
<feColorMatrix type="matrix" values="0 0 0 0 0 0 0 0 0 0 0 0 0 0 0 0 0 0 1 0"/>
<feBlend mode="normal" in2="BackgroundImageFix" result="effect1_dropShadow_461_102"/>
<feBlend mode="normal" in="SourceGraphic" in2="effect1_dropShadow_461_102" result="shape"/>
</filter>
<clipPath id="clip0_461_102">
<rect width="1855" height="453" fill="white"/>
</clipPath>
</defs>
</svg>
