<svg width="508" height="430" viewBox="0 0 508 430" fill="none" xmlns="http://www.w3.org/2000/svg">
<path d="M124.966 90.0228C113.886 88.9144 96.471 80.2696 86.2485 75.1567C82.0788 73.0712 70.9758 58.7258 66.8896 58.7258C66.2693 58.7258 62.9128 81.809 61.61 84.7414C57.602 93.7621 54.7909 97.6888 48.313 104.889C36.2695 118.275 31.9638 145.435 17.6126 156.92C12.5761 160.951 6.58047 166.754 2.55572 171.786C-1.7258 177.14 19.991 183.015 24.6522 185.087C42.4298 192.991 61.61 201.237 61.61 223.817C61.61 240.83 70.0021 269.294 62.3921 283.673C59.3462 289.428 49.761 293.57 44.7932 298.539C39.7786 303.555 33.8095 315.057 28.3675 318.686C26.1598 320.159 33.1034 321.086 35.4071 322.403C41.4747 325.871 43.7192 331.109 48.313 335.704C53.2551 340.648 61.4966 346.166 65.1297 352.526C73.3445 366.907 94.7891 381.804 106.585 393.604C106.708 393.727 117.961 377.814 120.664 374.434C125.654 368.194 127.26 360.036 137.285 357.808C143.804 356.359 154.318 359.149 156.449 366.61C159.939 378.83 169.58 373.597 176.981 379.52C189.485 389.526 184.313 413.075 196.144 423.727C206.726 433.253 322.074 425.732 322.074 412.186C322.074 398.661 303.976 383.935 298.218 371.696C297.493 370.154 316.198 365.181 320.314 362.893C327.057 359.146 335.364 353.63 343.193 354.091C354.647 354.765 366.929 380.345 376.436 385.779C386.121 391.316 383.32 393.603 394.23 387.54C405.14 381.477 412.774 371.125 424.148 365.436C431.979 361.52 437.735 356.657 445.267 353.309C454.643 349.14 456.232 332.095 464.821 329.64C488.322 322.924 452.647 301.075 443.507 295.996C427.064 286.858 411.268 275.386 428.45 256.288C436.679 247.142 430.082 238.076 435.099 229.294C439.462 221.656 483.494 227.733 493.762 227.338C534.217 225.782 462.095 130.886 454.066 116.43C447.512 104.627 446.571 104.106 432.948 104.106C422.393 104.106 413.967 102.983 405.767 110.366C392.571 122.246 389.817 105.311 381.911 94.3261C375.083 84.84 362.174 86.5019 351.993 86.5019C342.704 86.5019 335.916 85.1764 327.55 82.7853C324.452 81.9001 322.074 46.8058 322.074 40.73C322.074 31.6119 326.354 16.0836 314.644 16.0836C297.875 16.0836 282.028 12.5627 265.758 12.5627C255.893 12.5627 251.057 5.52091 241.119 5.52091C231.719 5.52091 222.552 2 214.721 2C203.408 2 211.909 47.0544 209.246 56.3785C208.497 58.9982 156.569 61.4457 149.605 61.8555C136.466 62.6286 120.877 81.997 107.367 86.5019" stroke="black" stroke-width="3" stroke-linecap="round"/>
</svg>
